<svg id="mindset-logo-big" class="logo-big" data-name="Layer 1" xmlns="http://www.w3.org/2000/svg" width="1026.73" height="383.35" viewBox="0 0 1026.73 383.35">
  <defs>
    <style>
      .cls-1 {
        fill: #2dceab;
      }

      .cls-2 {
        fill: #fff;
      }

      .cls-3 {
        fill: #3a0e80;
      }
    </style>
  </defs>
  <title>Artboard 1</title>
  <g>
    <path class="cls-1" d="M338.38,284.8h6.52l2.34,7.26c3.2-2.34,15.87-8,24.24-8,17.84,0,21.53,18.09,21.53,33.1,0,16.73-3,34-21.53,34a76.26,76.26,0,0,1-24.24-4.92v37.16h-8.86ZM371.47,342c7.87,0,12.43-4.8,12.43-24.85,0-16-4.43-24-12.43-24-9.72,0-17.59,3-24.24,5.66v40A86.11,86.11,0,0,0,371.47,342Z"/>
    <path class="cls-1" d="M407,300.43c0-10.09,4.31-16.24,17-16.24,6.4,0,25.71,1.35,32.11,2v7H424c-7.87,0-7.87,3.08-7.87,7.26v5.66c0,6.77,3.32,7,7.87,7h19.44c10.7,0,16,6.64,16,15.87v6c0,13.41-8.12,15.75-16,15.75-6,0-29-1.85-33.71-2.34v-6.77h33.71s6.89.74,6.89-6.64v-6c0-4.31-1.48-6.77-6.89-6.77H424c-11.57,0-17-3.44-17-16.12Z"/>
    <path class="cls-1" d="M471.29,284.8H520v9.1l-34.94,47H520c.12.12,0,9.1,0,9.1H473.14v-9.1l35.56-47h-37.4Z"/>
    <path class="cls-1" d="M533,267.58a2.75,2.75,0,0,1,3-3.08h6.15a2.78,2.78,0,0,1,2.83,3.08v6.64a2.59,2.59,0,0,1-2.83,2.83h-6.15a2.75,2.75,0,0,1-3-2.83Zm1.23,17.22h9.1v65.33h-9.1Z"/>
    <path class="cls-1" d="M581,284.19c6.4,0,19.44,1.6,28.05,3.2V294s-17.1-.74-28.05-.74c-7.38,0-12.43,1.35-12.43,24.61,0,18.82,3.57,23.74,12.43,23.74,11.32,0,28.91-1.35,28.91-1.35v6.89c-10,2.83-18.7,3.44-28.91,3.57-12.18,0-21.53-4.68-21.53-33.34S568.46,284.19,581,284.19Z"/>
    <path class="cls-1" d="M624.65,253.68h9.1v38.75c7.5-4.31,14.15-8.74,24.11-8.74,13,0,20.18,10.09,20.18,20.91v45.52h-9.1V304.61c0-8.12-4.68-11.81-11.07-11.81-9.84,0-14.64,2.46-24.11,7v50.32h-9.1Z"/>
    <path class="cls-1" d="M722.37,284.19c22,0,28.79,8.24,28.79,34.2,0,24.24-6.77,32.36-28.79,32.36s-28.79-9-28.79-32.36C693.58,291.69,701,284.19,722.37,284.19Zm0,57.45c13.29,0,19.68-1.72,19.68-23.25,0-23.38-5.29-25.1-19.68-25.1-13.78,0-19.69,1.6-19.69,25.1C702.68,340.17,709.69,341.64,722.37,341.64Z"/>
    <path class="cls-1" d="M767.24,253.8h9.1v73.08c0,10.7,2.83,13.16,7,14.15,0,0,10.09,2.58,10.95,2.58v6.52H783.48c-9.47,0-16.24-5.91-16.24-23.25Z"/>
    <path class="cls-1" d="M833.39,284.19c22,0,28.79,8.24,28.79,34.2,0,24.24-6.77,32.36-28.79,32.36s-28.79-9-28.79-32.36C804.6,291.69,812,284.19,833.39,284.19Zm0,57.45c13.29,0,19.68-1.72,19.68-23.25,0-23.38-5.29-25.1-19.68-25.1-13.78,0-19.69,1.6-19.69,25.1C813.71,340.17,820.72,341.64,833.39,341.64Zm8.92-81.2H854l-16.36,16.36h-8.49Z"/>
    <path class="cls-1" d="M884,325.77c-5.41-3.44-7.14-11.44-7.14-18,0-15.63,8.12-23.25,21.28-23.25h38.39v6.89l-10,2.21c1.35,2.58,3.81,5.17,3.81,14.15,0,7.38-2.83,24-20.3,24H890.9c-2,0-5,.49-5,3.69s2.31,4.18,5,4.18h26.21c10.16,0,15.87,6.77,15.87,17v7.75c0,7.38-2.34,18.95-18.45,18.95H896.07c-11.57,0-19.68-6.15-19.68-18.95V353.95l4.92-8c-3.44-2.46-4.55-6.64-4.55-10C876.75,331.92,879,326.76,884,325.77Zm12.06,48.47h18.45c7.26,0,9.35-4.06,9.35-9.84v-7.14c0-5.78-1.28-8.49-8.37-8.49H891c-3.81,0-5.54-1-5.54-1V364.4C885.49,373.39,891.76,374.25,896.07,374.25Zm1.23-51.55h12.06c9.84,0,12.18-9.1,11.93-14.89-.37-8.61-2.34-14.15-12.06-14.15H898.16c-10.09,0-12.18,7.38-12.18,14.15C886,313.84,887.83,322.7,897.3,322.7Z"/>
    <path class="cls-1" d="M948.93,267.58a2.75,2.75,0,0,1,3-3.08H958a2.78,2.78,0,0,1,2.83,3.08v6.64a2.59,2.59,0,0,1-2.83,2.83h-6.15a2.75,2.75,0,0,1-3-2.83Zm1.23,17.22h9.1v65.33h-9.1Z"/>
    <path class="cls-1" d="M973.95,327.13c0-9.84,6.15-16.36,16.36-16.36,0,0,27.31.12,27.31,0s.12-8.12,0-8.24c0-7.5-3.94-10.09-10.09-10.09-8.86,0-19.56.62-31.5,1.48v-6.64c8.74-2.46,19.69-3.57,31.86-3.69,10.21-.12,18.82,5.41,18.82,18.95v47.61H1020l-2.34-7.87c-.25,0-16.12,8.61-27.31,8.61-9,0-16.36-5.78-16.36-16.24Zm16.36,14.64c9.84,0,27.31-6.27,27.31-6.27V317.9l-27.31,2c-5.29.49-7.26,4.06-7.26,8V334C983.05,339.92,986.13,341.77,990.31,341.77Z"/>
  </g>
  <g>
    <path class="cls-2" d="M650.26,83.49c.29.19.28.1,0-.18Z"/>
    <circle class="cls-1" cx="284.16" cy="22.46" r="22.46"/>
    <path class="cls-3" d="M473.19,127c0-7.77-1.31-27.26-13.48-40.27-10.61-11.35-22-15.57-42.13-15.57a69.47,69.47,0,0,0-34.42,9.54V71.08H335.77V91h9.33V196.4h-9.33v20H392.1v-20h-8.37V116.87s0,0,0,0a38.1,38.1,0,0,1,27.07-14.39c8-.6,14.18,1,18.28,4.83,5.4,5,6.3,12.74,6.4,18.5h0v71h-9.17v20H482.6v-20h-9.45Z"/>
    <path class="cls-3" d="M632.5,18h.1V0H585.47V18h9.41V83.31c.28.28.29.37,0,.18v-.18c-1.74-1.76-14.5-11.49-35.2-11.49-19.76,0-59.63,13.92-59.63,72.91,0,25.09,8.27,42.67,18.26,53.59,12.84,14,29.18,17.58,41.37,17.58,21.1,0,31-8.33,35.58-12v12.22h46.56v-18H632.5ZM594.88,171.07c-5.23,6.83-15.32,15.31-28.9,15.31-21.65,0-27.45-26.65-27.45-41.31,0-16.67,4.17-44,28.17-44,9.65,0,19.65,5.33,28.18,15.74Z"/>
    <path class="cls-3" d="M734.86,128.78c-6-1.67-11-2.75-12.28-3-14.83-3.26-18.66-6.79-19.16-11.79-.65-6.54,3.33-11.83,13.83-12.25,11.21-.44,22.9,6.2,35.76,15.92v.16h18V72.6H753V83.85c-10.34-5.39-21-11.49-40.26-11.49-16.63,0-30.45,6.7-38.92,18a39.79,39.79,0,0,0-6.51,34.42c6.06,22.74,26.94,29.38,43,33.11,6,1.67,11,2.75,12.28,3,14.83,3.26,18.73,6.79,19.16,11.79.46,5.4-2.88,11.45-15.37,12.73-14.67,1.5-29.48-4.68-42.25-14.27v-.06H665.92v44.75h18.25V206.4c10.14,5.29,25.86,10.16,46.5,9.42,16.25-.58,31.42-6.92,40.71-19.52a40.17,40.17,0,0,0,6.51-34.42C771.83,139.14,751,132.51,734.86,128.78Z"/>
    <polygon class="cls-3" points="303.54 71.4 255.99 71.4 255.99 91.44 265.32 91.44 265.32 196.73 255.99 196.73 255.99 216.77 312.33 216.77 312.33 196.73 303.54 196.73 303.54 71.4"/>
    <path class="cls-3" d="M907.9,92.89c-.74-.87-1.5-1.7-2.28-2.51-.36-.38-.73-.74-1.09-1.11-9.82-9.78-22.16-15.3-36.77-16.41-3-.22-5.72-.37-8.45-.37a62.35,62.35,0,0,0-16.11,2c-22.91,5.91-39.51,23.9-44.4,48.13a94.9,94.9,0,0,0-1.72,28.14c1.29,16.18,6.55,30.55,15.21,41.55,10.11,12.82,24.11,20.29,41.63,22.19,23.28,2.53,38.6-2.45,47.36-7.07s12.86-9.83,13.43-10.59l-.32-25.06c-3.82,2.81-25.68,17.74-52.18,13.13-15-2.61-21.93-10.22-25.09-16.15a27,27,0,0,1-3.28-12.4V156h87.86l.21-16.95h0C922,125.3,920.52,107.66,907.9,92.89Zm-19.51,34.55H833.56v-.37c0-14.79,12.05-26.37,27.41-26.37s27.4,11.58,27.41,26.37Z"/>
    <path class="cls-3" d="M1026,179.34a40.93,40.93,0,0,1-10,3.32c-7.38,1.67-13.35.72-17.74-2.84-9.5-7.69-9.25-25.6-9.17-31.51,0-.5,0-.92,0-1.24V98.63h34.83v-28H989V17.46H951.1V70.63H932.87v28H951.1V154.2c0,25.09,3.21,33.9,10,43.15,9.34,12.79,22.28,18.83,40.5,18.83q2.11,0,4.31-.11a49.82,49.82,0,0,0,20.59-5.93l.25-.14V178.94Z"/>
    <path class="cls-3" d="M226,196.52l0-69.92c0-11.68-1.27-28.56-12.21-40.27-10.61-11.35-22-15.57-42.13-15.57-16.15,0-32.9,6.47-46.14,17.79-.53-.65-1.06-1.26-1.61-1.85-10.61-11.35-22-15.57-42.13-15.57a69.47,69.47,0,0,0-34.42,9.54V71H0V91H9.33V196.35H0v20H56.33v-20H47.39V147.13c.15-11.4.43-27.73.58-30.35A38,38,0,0,1,75,102.39c14.65-1.09,22.85,5.2,24.39,18.68v75.62H90.5v20h56.33v-20h-9V116.37a38,38,0,0,1,27-14.36c7.89-.59,14,1,18.06,4.63s6.26,9.33,6.58,17.27v72.61h-9.32v20h56.33v-20Z"/>
  </g>
</svg>
